<svg width="143" height="40" viewBox="0 0 143 40" fill="none" xmlns="http://www.w3.org/2000/svg">
    <path
        d="M14.768 0L0 8.52818V14.2136L14.7708 22.7418L29.5416 14.2136V8.52818L14.768 0ZM14.7708 17.0564L4.9236 11.3709L14.7708 5.68545L24.618 11.3709L14.7708 17.0564Z"
        fill="#141414"></path>
    <path d="M0 19.8991L14.7708 28.4273L29.5416 19.8991V25.5846L14.7708 34.1127L0 25.5846V19.8991Z"
        fill="#141414"></path>
    <path d="M50.6318 25.5846H38.0726V4.26416H42.6381V21.3774H50.6346V25.5846H50.6318Z"
        fill="#141414"></path>
    <path
        d="M63.9443 25.4368C62.9209 25.7949 61.8293 25.974 60.678 25.974C59.5267 25.974 58.4294 25.7949 57.3975 25.4368C56.3628 25.0786 55.4275 24.5527 54.5917 23.8562C53.756 23.1597 53.0908 22.2245 52.5933 21.0533C52.0958 19.8792 51.8485 18.546 51.8485 17.0564C51.8485 14.1739 52.7099 11.9736 54.4297 10.4641C56.1496 8.95178 58.2333 8.19562 60.6809 8.19562C63.1285 8.19562 65.1809 8.95178 66.9007 10.4641C68.6206 11.9764 69.4819 14.1739 69.4819 17.0564C69.4819 18.5488 69.2375 19.8821 68.7514 21.0533C68.2624 22.2273 67.5972 23.1626 66.7529 23.8562C65.9086 24.5527 64.9734 25.0786 63.95 25.4368H63.9443ZM57.5453 20.8116C58.3413 21.727 59.3846 22.1847 60.678 22.1847C61.9715 22.1847 63.0091 21.727 63.7965 20.8116C64.5811 19.8963 64.9734 18.6426 64.9734 17.0536C64.9734 15.4645 64.5754 14.2393 63.7794 13.3239C62.9835 12.4085 61.9402 11.9509 60.6467 11.9509C59.3533 11.9509 58.3385 12.4029 57.5453 13.3097C56.7494 14.2137 56.3514 15.4616 56.3514 17.0536C56.3514 18.6455 56.7494 19.8991 57.5453 20.8116Z"
        fill="#141414"></path>
    <path
        d="M89.1621 29.8458L84.628 32.464V22.6878C84.23 23.6032 83.5477 24.3594 82.584 24.9563C81.6204 25.5533 80.4918 25.8518 79.1984 25.8518C77.0692 25.8518 75.2754 25.107 73.8142 23.6146C72.3531 22.1221 71.6225 19.9361 71.6225 17.0507C71.6225 14.1654 72.3474 11.9452 73.8 10.4414C75.2527 8.94042 77.0407 8.18994 79.1699 8.18994C80.4833 8.18994 81.626 8.4799 82.6011 9.05413C83.5762 9.6312 84.2527 10.376 84.6308 11.2914V8.54528H89.165V29.843L89.1621 29.8458ZM80.4804 22.1221C81.754 22.1221 82.7859 21.6701 83.5818 20.7662C84.3778 19.8622 84.7758 18.6227 84.7758 17.0507C84.7758 15.4787 84.3778 14.2051 83.5818 13.2926C82.7859 12.3773 81.7426 11.9196 80.4492 11.9196C79.1557 11.9196 78.1181 12.3773 77.3307 13.2926C76.5461 14.208 76.151 15.4616 76.151 17.0507C76.151 18.6398 76.5489 19.8593 77.3449 20.7662C78.1409 21.6701 79.1841 22.1221 80.4776 22.1221H80.4804Z"
        fill="#141414"></path>
    <path
        d="M99.2964 25.9712C97.1075 25.9712 95.2995 25.1809 93.8668 23.6004C92.4341 22.0198 91.7177 19.8366 91.7177 17.0507C91.7177 14.2648 92.4284 12.093 93.8498 10.5323C95.2711 8.97169 97.0762 8.18994 99.2651 8.18994C100.499 8.18994 101.61 8.4799 102.605 9.05413C103.6 9.6312 104.305 10.4158 104.723 11.4107V8.51685H109.257V25.5817H104.723V22.776C104.305 23.751 103.6 24.5271 102.605 25.1042C101.61 25.6812 100.507 25.9683 99.2936 25.9683L99.2964 25.9712ZM100.578 22.1818C101.852 22.1818 102.884 21.7242 103.68 20.8088C104.476 19.8934 104.874 18.6398 104.874 17.0507C104.874 15.4616 104.476 14.2364 103.68 13.3211C102.884 12.4057 101.841 11.948 100.547 11.948C99.2538 11.948 98.2389 12.4 97.4458 13.3068C96.6498 14.2108 96.2519 15.4588 96.2519 17.0507C96.2519 18.6426 96.6498 19.8963 97.4458 20.8088C98.2418 21.7242 99.285 22.1818 100.578 22.1818Z"
        fill="#141414"></path>
    <path
        d="M141.301 22.3496C139.871 24.7232 137.398 25.9115 133.887 25.9115C131.2 25.9115 129.048 25.1013 127.428 23.481C125.808 21.8606 124.998 19.7172 124.998 17.0507C124.998 14.3842 125.808 12.292 127.428 10.6517C129.048 9.01149 131.152 8.18994 133.739 8.18994C136.562 8.18994 138.742 9.09393 140.272 10.9047C141.804 12.7156 142.429 15.112 142.151 18.094H129.532C129.572 19.4869 129.989 20.5643 130.785 21.3319C131.581 22.0966 132.656 22.4803 134.006 22.4803C135.936 22.4803 137.218 21.7753 137.855 20.3625L141.301 22.3496ZM129.623 15.112H138.006C137.906 13.9777 137.489 13.0737 136.752 12.3972C136.016 11.7206 135.052 11.3823 133.858 11.3823C132.664 11.3823 131.721 11.7064 130.964 12.3517C130.208 12.997 129.762 13.918 129.623 15.112Z"
        fill="#141414"></path>
    <path
        d="M121.384 25.8461C118.996 25.8461 117.257 25.3031 116.162 24.2201C115.068 23.137 114.522 21.3205 114.522 18.7762V11.9452H112.106V8.514H114.522V5.67127L119.087 3.04175V8.514H123.741V11.9452H119.087V18.3584C119.087 19.7911 119.315 20.8003 119.773 21.3859C120.23 21.9715 121.026 22.2671 122.16 22.2671C122.379 22.2671 122.837 22.2188 123.533 22.1193L124.13 25.5505C123.374 25.7494 122.459 25.8489 121.387 25.8489L121.384 25.8461Z"
        fill="#141414"></path>
    <path
        d="M120.657 36.0771V36.4324H123.641C123.147 38.0783 121.413 39.0136 119.764 38.519C118.118 38.0243 117.183 36.2903 117.677 34.6415C118.172 32.9955 119.906 32.0603 121.555 32.5549C122.05 32.7027 122.496 32.97 122.863 33.3367L123.806 32.3929C122.067 30.656 119.247 30.656 117.51 32.3929C115.773 34.1326 115.773 36.9526 117.51 38.6895C119.249 40.4264 122.069 40.4264 123.806 38.6895C124.642 37.8538 125.111 36.7224 125.108 35.5398V35.1134H121.632C121.097 35.1134 120.662 35.5426 120.654 36.0771H120.657Z"
        fill="#141414"></path>
    <path
        d="M131.601 35.1986C132.445 34.1724 132.295 32.6572 131.268 31.813C130.839 31.4605 130.299 31.2672 129.742 31.2672H126.009V39.7953H130.151C131.564 39.7641 132.684 38.59 132.65 37.1772C132.633 36.3841 132.246 35.6449 131.61 35.1759L131.601 35.1986ZM130.143 38.482H127.337V32.6004H129.742C130.33 32.5464 130.851 32.9813 130.905 33.5698C130.959 34.1582 130.524 34.6784 129.935 34.7324C129.873 34.7381 129.807 34.7381 129.745 34.7324H129.654C129.114 34.7324 128.676 35.1731 128.676 35.7132V36.0714H130.143C130.276 36.0714 130.41 36.0941 130.535 36.1396C131.16 36.3613 131.49 37.0464 131.271 37.6747C131.104 38.1522 130.652 38.4763 130.143 38.4791V38.482Z"
        fill="#141414"></path>
    <path
        d="M138.739 35.0963C138.196 35.0963 137.758 35.5341 137.758 36.0771V36.4324H140.743C140.252 38.0812 138.515 39.0221 136.866 38.5303C135.217 38.0385 134.276 36.3016 134.768 34.6529C135.26 33.0041 136.997 32.0631 138.645 32.5549C139.14 32.7027 139.592 32.97 139.959 33.3367L140.905 32.3929C139.163 30.656 136.346 30.6617 134.609 32.4043C132.872 34.1468 132.877 36.964 134.62 38.7009C136.363 40.4378 139.18 40.4321 140.917 38.6895C141.75 37.8538 142.216 36.7195 142.216 35.5398V35.1134L138.739 35.0963Z"
        fill="#141414"></path>
</svg>